<?xml version="1.0" encoding="UTF-8"?>
<svg id="Layer_2" data-name="Layer 2" xmlns="http://www.w3.org/2000/svg" viewBox="0 0 560.72 520.3">
  <g id="Layer_3" data-name="Layer 3">
    <g>
      <path d="m321.43,412.93c-12.27-5.93-87.24-72.23-99.51-127.76,8.18,15.6,13.4,22.15,17.95,25.58,3.41-2.81-10.61-17.71-10.68-34.01,13.63,15.6,22.94,18.1,36.57,24.02,12.28-.89-2.62-1.1-17.18-25.41.18-.8.35-1.63.53-2.43.92.53,1.85,1.04,2.77,1.53,4.69,5.85,15.27,16.04,17.14,12.66.15-3.95-12.12-14.14,9.39-2.29,21.51,11.86,16.81,2.08,10.9-4.16,22.11-8.94,19.23-14.98,12.72-15.18-6.32.81-12.25-.46-17.69-2.9-12.89-11.3-36.52-29.42-56.56-61.55,4.53-1.06,9.14-3.35,9.14-6.62-5.44-.93-9.72-3.12-12.73-5.2-.03-.15-.05-.31-.09-.47,9.07,2.85,35.9,8.04,18.07-8.75.1-.21.2-.43.29-.65,8.72,2.88,33.94,8.21,23.02-4.04-.1-.18-.24-.32-.41-.44-2.08-2.24-5.31-5.04-9.98-8.5.29,0,.59,0,.89,0,8.92,2.53,18.12-1.53,24.84-3.94.24-.29.15-.52-.18-.7.84-1.01-.17-1.92-3.57-2.39-6.6-.9-16.4-5.18-25.2-9.94l-20.47-12.86c-45.13-36.67-53.49-66.27-64.71-123.67-.03-.63-.06-1.26-.08-1.88-.37-1.42-.75-2.87-1.13-4.34-.42-2.18-.85-4.39-1.28-6.64-.07.29-.15.57-.22.86-.07-.29-.15-.57-.22-.86-.43,2.26-.86,4.47-1.28,6.64-10.44,60.82-21.52,75.95-21.16,76.48-9.13,18.88-22.45,35.28-44.76,53.41l-20.47,12.86c-8.8,4.76-18.6,9.04-25.2,9.94-3.4.46-4.42,1.37-3.58,2.39-.33.19-.41.41-.18.7,6.73,2.41,15.93,6.47,24.84,3.94.29,0,.59,0,.89,0-4.66,3.46-7.9,6.26-9.98,8.5-.17.12-.31.26-.41.44-10.92,12.26,14.3,6.92,23.02,4.04.09.22.19.44.29.65-17.83,16.78,9,11.6,18.07,8.75-.04.16-.06.31-.09.47-3.01,2.07-7.29,4.27-12.73,5.2,0,3.27,4.61,5.56,9.14,6.62-20.04,32.13-43.67,50.25-56.56,61.55-5.44,2.45-11.37,3.72-17.69,2.9-6.51.21-9.39,6.24,12.72,15.18-5.91,6.24-10.6,16.02,10.9,4.16,21.51-11.86,9.24-1.66,9.39,2.29,1.88,3.38,12.45-6.81,17.14-12.66.93-.48,1.85-.99,2.77-1.53.18.81.35,1.63.53,2.43-14.56,24.32-29.47,24.53-17.18,25.41,13.63-5.93,22.94-8.42,36.57-24.02-.07,16.3-14.08,31.2-10.68,34.01,4.54-3.43,9.77-9.98,17.95-25.58-12.27,55.54-87.24,121.83-99.51,127.76-7.11,1.53-15.59,16.82,17.05,1.67-9.54,15.15-17.49,22.84,1.14,25.55,9.69-.42,15.02.64,31.53-16-11.84,22.44-37.44,16.62-21.23,24.62,33.26-2.08,34.23-.87,61.49-34.8-9.09,42.43-31.26,32.34-22.72,39.28,8.75,7.11,29.67-.49,45.51-21.26-1.09,2.16-1.58,4.07-1.62,5.7-1.15,3.3-4.1,13.06,3.22,9.1,3.37,2.33,10.36.8,24.64-13.19-.47,30.58-2.58,70.86-10.13,84.92-.34.64-.7,1.25-1.06,1.78h56.02c-.13-.62-.26-1.25-.39-1.89-5.03-24.75-7.85-58.54-9.38-84.36,6.86,17.59,26.96,32.25,23.57-8.49,16.13,25.58,40.38,35.48,49.98,27.68,8.54-6.94-13.63,3.15-22.72-39.28,27.26,33.93,28.23,32.72,61.49,34.8,16.2-8.01-9.39-2.18-21.23-24.62,16.51,16.64,21.84,15.58,31.53,16,18.63-2.7,10.68-10.4,1.14-25.55,32.64,15.15,24.16-.14,17.05-1.67Z"/>
      <path d="m462.39,520.3c-3.16-17.13-4.97-39.21-5.98-56.33,4.85,12.45,19.08,22.83,16.68-6.01,11.42,18.11,28.58,25.12,35.38,19.59,6.04-4.91-9.65,2.23-16.08-27.8,19.3,24.02,19.98,23.16,43.53,24.64,11.47-5.67-6.65-1.54-15.03-17.43,11.69,11.78,15.46,11.03,22.32,11.32,13.19-1.91,7.56-7.36.8-18.08,23.1,10.72,17.1-.1,12.07-1.18-8.68-4.2-61.76-51.13-70.44-90.44,5.79,11.04,9.49,15.68,12.7,18.11,2.41-1.99-7.51-12.54-7.56-24.07,9.65,11.04,16.24,12.81,25.89,17.01,8.7-.63-1.86-.78-12.16-17.99.13-.57.25-1.15.37-1.72.65.38,1.31.74,1.96,1.08,3.32,4.14,10.81,11.35,12.13,8.96.11-2.8-8.58-10.01,6.65-1.62,15.22,8.39,11.9,1.47,7.72-2.94,15.65-6.33,13.61-10.6,9.01-10.75-4.47.58-8.67-.32-12.52-2.06-9.12-8-25.85-20.83-40.04-43.57,3.21-.75,6.47-2.37,6.47-4.69-3.85-.66-6.88-2.21-9.01-3.68-.02-.11-.04-.22-.06-.33,6.42,2.02,25.41,5.69,12.79-6.19.07-.15.14-.31.21-.46,6.18,2.04,24.03,5.81,16.3-2.86-.07-.13-.17-.23-.29-.31-1.47-1.58-3.76-3.56-7.06-6.01.21,0,.42,0,.63,0,6.31,1.79,12.82-1.08,17.59-2.79.17-.21.11-.36-.12-.5.6-.72-.12-1.36-2.53-1.69-4.67-.63-11.61-3.66-17.84-7.03l-14.49-9.1c-31.95-25.95-37.87-46.91-45.81-87.54-.02-.44-.04-.89-.06-1.33-.26-1.01-.53-2.03-.8-3.07-.3-1.54-.6-3.11-.91-4.7-.05.21-.1.4-.16.61-.05-.2-.1-.4-.16-.61-.31,1.6-.61,3.16-.91,4.7-7.39,43.05-15.23,53.76-14.98,54.14-6.46,13.37-15.89,24.98-31.68,37.81l-14.49,9.1c-6.23,3.37-13.17,6.4-17.84,7.03-2.41.33-3.13.97-2.53,1.69-.23.13-.29.29-.12.5,4.76,1.71,11.27,4.58,17.59,2.79.21,0,.42,0,.63,0-3.3,2.45-5.59,4.43-7.06,6.01-.12.09-.22.19-.29.31-7.73,8.68,10.12,4.9,16.3,2.86.07.16.14.31.21.46-12.62,11.88,6.37,8.21,12.79,6.19-.03.11-.04.22-.06.33-2.13,1.47-5.16,3.02-9.01,3.68,0,2.32,3.27,3.94,6.47,4.69-14.19,22.74-30.91,35.57-40.04,43.57-3.85,1.73-8.05,2.63-12.52,2.06-4.61.15-6.65,4.42,9,10.75-4.18,4.42-7.5,11.34,7.72,2.94,15.22-8.39,6.54-1.18,6.65,1.62,1.33,2.39,8.81-4.82,12.13-8.96.66-.34,1.31-.7,1.96-1.08.13.57.25,1.16.37,1.72-10.3,17.21-20.86,17.36-12.16,17.99,9.65-4.2,16.24-5.96,25.89-17.01-.05,11.54-9.97,22.08-7.56,24.07,3.22-2.43,6.91-7.07,12.7-18.11-8.68,39.31-61.76,86.24-70.44,90.44-5.03,1.08-11.03,11.9,12.07,1.18-6.75,10.72-12.38,16.17.8,18.08,6.86-.29,10.63.46,22.32-11.32-8.38,15.89-26.5,11.76-15.03,17.43,23.54-1.47,24.23-.61,43.52-24.64-6.43,30.04-22.12,22.89-16.08,27.8,6.19,5.03,21-.35,32.22-15.05-.77,1.53-1.12,2.88-1.14,4.04-.81,2.33-2.91,9.25,2.28,6.44,2.38,1.65,7.33.57,17.44-9.34-.3,19.51-1.54,44.59-5.7,56.65"/>
    </g>
  </g>
</svg>